<?xml version="1.0" encoding="UTF-8" standalone="no"?>
<!DOCTYPE svg PUBLIC "-//W3C//DTD SVG 1.1//EN"
 "http://www.w3.org/Graphics/SVG/1.1/DTD/svg11.dtd">
<!-- Generated by graphviz version 2.40.1 (20161225.0304)
 -->
<!-- Title: git&#45;storage Pages: 1 -->
<svg width="166pt" height="237pt"
 viewBox="0.00 0.00 166.41 236.74" xmlns="http://www.w3.org/2000/svg" xmlns:xlink="http://www.w3.org/1999/xlink">
<g id="graph0" class="graph" transform="scale(1 1) rotate(0) translate(4 232.7401)">
<title>git&#45;storage</title>
<polygon fill="#ffffff" stroke="transparent" points="-4,4 -4,-232.7401 162.4092,-232.7401 162.4092,4 -4,4"/>
<!-- blob -->
<g id="node1" class="node">
<title>blob</title>
<ellipse fill="none" stroke="#000000" cx="50.2046" cy="-18" rx="27" ry="18"/>
<text text-anchor="middle" x="50.2046" y="-14.3" font-family="Times,serif" font-size="14.00" fill="#000000">blob</text>
</g>
<!-- tree -->
<g id="node2" class="node">
<title>tree</title>
<ellipse fill="none" stroke="#000000" cx="50.2046" cy="-120" rx="27" ry="18"/>
<text text-anchor="middle" x="50.2046" y="-116.3" font-family="Times,serif" font-size="14.00" fill="#000000">tree</text>
</g>
<!-- tree&#45;&gt;blob -->
<g id="edge1" class="edge">
<title>tree&#45;&gt;blob</title>
<path fill="none" stroke="#000000" d="M50.2046,-101.7644C50.2046,-86.317 50.2046,-63.9149 50.2046,-46.164"/>
<polygon fill="#000000" stroke="#000000" points="53.7047,-46.0776 50.2046,-36.0777 46.7047,-46.0777 53.7047,-46.0776"/>
<text text-anchor="start" x="50.2046" y="-72.8" font-family="Times,serif" font-size="14.00" fill="#000000">+filename</text>
<text text-anchor="start" x="50.2046" y="-57.8" font-family="Times,serif" font-size="14.00" fill="#000000">+mode</text>
</g>
<!-- tree&#45;&gt;tree -->
<g id="edge2" class="edge">
<title>tree&#45;&gt;tree</title>
<path fill="none" stroke="#000000" d="M75.6481,-126.6907C86.2324,-127.1521 95.2046,-124.9219 95.2046,-120 95.2046,-116.77 91.3406,-114.6992 85.6927,-113.7876"/>
<polygon fill="#000000" stroke="#000000" points="85.8033,-110.289 75.6481,-113.3093 85.4702,-117.2811 85.8033,-110.289"/>
<text text-anchor="start" x="95.2046" y="-123.8" font-family="Times,serif" font-size="14.00" fill="#000000">subdir</text>
<text text-anchor="middle" x="123.7046" y="-108.8" font-family="Times,serif" font-size="14.00" fill="#000000">+filename</text>
</g>
<!-- commit -->
<g id="node3" class="node">
<title>commit</title>
<ellipse fill="none" stroke="#000000" cx="50.2046" cy="-201.8701" rx="50.41" ry="26.7407"/>
<text text-anchor="start" x="22.7046" y="-205.6701" font-family="Times,serif" font-size="14.00" fill="#000000">commit</text>
<text text-anchor="start" x="22.7046" y="-190.6701" font-family="Times,serif" font-size="14.00" fill="#000000">&#45; message</text>
</g>
<!-- commit&#45;&gt;tree -->
<g id="edge3" class="edge">
<title>commit&#45;&gt;tree</title>
<path fill="none" stroke="#000000" d="M50.2046,-174.6085C50.2046,-166.2357 50.2046,-157.0006 50.2046,-148.5444"/>
<polygon fill="#000000" stroke="#000000" points="53.7047,-148.3732 50.2046,-138.3732 46.7047,-148.3733 53.7047,-148.3732"/>
</g>
<!-- commit&#45;&gt;commit -->
<g id="edge4" class="edge">
<title>commit&#45;&gt;commit</title>
<path fill="none" stroke="#000000" d="M98.3236,-209.9745C109.8607,-209.3411 118.4092,-206.6396 118.4092,-201.8701 118.4092,-198.6655 114.5502,-196.3945 108.5187,-195.0571"/>
<polygon fill="#000000" stroke="#000000" points="108.6842,-191.5502 98.3236,-193.7656 107.8044,-198.4947 108.6842,-191.5502"/>
<text text-anchor="middle" x="138.4092" y="-198.1701" font-family="Times,serif" font-size="14.00" fill="#000000">parents</text>
</g>
</g>
</svg>
